<svg width="50" height="51" viewBox="0 0 50 51" fill="none" xmlns="http://www.w3.org/2000/svg">
<path d="M40.8776 36.8652C39.6559 36.8652 38.4952 37.5671 37.6197 38.8366C36.7441 40.1209 36.2554 41.7936 36.2554 43.5857C36.2554 45.3778 36.7339 47.0504 37.6197 48.3348C38.5054 49.6042 39.6559 50.3061 40.8776 50.3061C43.3822 50.3061 45.4185 47.2894 45.4185 43.5857C45.4185 39.882 43.3822 36.8652 40.8776 36.8652ZM40.8776 47.3192C39.4726 47.3192 38.2916 45.6167 38.2916 43.5857C38.2916 41.5546 39.4726 39.8521 40.8776 39.8521C42.2623 39.8521 43.3822 41.5247 43.3822 43.5857C43.3822 45.6466 42.2623 47.3192 40.8776 47.3192Z" fill="#0F3B66"/>
<path d="M42.059 14.4787C41.8757 14.2249 41.6314 14.0905 41.3768 14.0905H36.1539C35.5939 14.0905 35.1357 14.7625 35.1357 15.5839V27.83C35.1357 28.6514 35.5939 29.3234 36.1539 29.3234H44.4414C45.0013 29.3234 45.4595 28.6514 45.4595 27.83V19.6311C45.4595 19.2129 45.3373 18.8097 45.1235 18.5259L42.059 14.4787ZM43.4233 26.3366H37.172V17.0624H40.9798L43.4233 20.2882V26.3366Z" fill="#0F3B66"/>
<path d="M16.0149 36.8652C14.7931 36.8652 13.6324 37.5671 12.7569 38.8366C11.8813 40.1209 11.3926 41.7936 11.3926 43.5857C11.3926 45.3778 11.8711 47.0504 12.7569 48.3348C13.6426 49.6042 14.7931 50.3061 16.0149 50.3061C18.5194 50.3061 20.5557 47.2894 20.5557 43.5857C20.5557 39.882 18.5194 36.8652 16.0149 36.8652ZM16.0149 47.3192C14.6098 47.3192 13.4288 45.6167 13.4288 43.5857C13.4288 41.5546 14.6098 39.8521 16.0149 39.8521C17.3995 39.8521 18.5194 41.5247 18.5194 43.5857C18.5194 45.6466 17.3995 47.3192 16.0149 47.3192Z" fill="#0F3B66"/>
<path d="M9.22427 38.7022H7.17785V34.7296C7.17785 33.9082 6.71969 33.2362 6.15972 33.2362C5.59976 33.2362 5.1416 33.9082 5.1416 34.7296V40.1956C5.1416 41.017 5.59976 41.689 6.15972 41.689H9.22427C9.78424 41.689 10.2424 41.017 10.2424 40.1956C10.2424 39.3742 9.78424 38.7022 9.22427 38.7022Z" fill="#0F3B66"/>
<path d="M14.3861 30.5629C14.3861 29.7416 13.9279 29.0695 13.3679 29.0695H1.01812C0.458155 29.0695 0 29.7416 0 30.5629C0 31.3843 0.458155 32.0564 1.01812 32.0564H13.3679C13.9279 32.0564 14.3861 31.3993 14.3861 30.5629Z" fill="#0F3B66"/>
<path d="M3.08428 25.1717L15.4341 25.2762C15.9941 25.2762 16.4522 24.6191 16.4624 23.7977C16.4726 22.9614 16.0144 22.2894 15.4545 22.2894L3.10464 22.1848C3.09446 22.1848 3.09446 22.1848 3.09446 22.1848C2.53449 22.1848 2.07634 22.8419 2.07634 23.6633C2.06616 24.4996 2.52431 25.1717 3.08428 25.1717Z" fill="#0F3B66"/>
<path d="M5.16168 18.3915H17.5115C18.0715 18.3915 18.5296 17.7195 18.5296 16.8981C18.5296 16.0767 18.0715 15.4047 17.5115 15.4047H5.16168C4.60171 15.4047 4.14355 16.0767 4.14355 16.8981C4.14355 17.7195 4.60171 18.3915 5.16168 18.3915Z" fill="#0F3B66"/>
<path d="M49.6234 16.3754L42.3336 7.51935C42.1504 7.29534 41.9264 7.17587 41.682 7.17587H33.1094V1.79952C33.1094 0.978134 32.6513 0.306091 32.0913 0.306091H6.15972C5.59976 0.306091 5.1416 0.978134 5.1416 1.79952V12.7314C5.1416 13.5528 5.59976 14.2249 6.15972 14.2249C6.71969 14.2249 7.17785 13.5528 7.17785 12.7314V3.29295H31.0834V38.7021H22.7348C22.1748 38.7021 21.7166 39.3742 21.7166 40.1956C21.7166 41.017 22.1748 41.689 22.7348 41.689H35.166C35.726 41.689 36.1842 41.017 36.1842 40.1956C36.1842 39.3742 35.726 38.7021 35.166 38.7021H33.1196V10.1627H41.3257L47.9638 18.2272L47.8926 38.6723H46.8337C46.2738 38.6723 45.8156 39.3443 45.8156 40.1657C45.8156 40.9871 46.2738 41.6591 46.8337 41.6591H48.9005C49.4605 41.6591 49.9186 41.002 49.9186 40.1806L50.0001 17.5403C49.9899 17.0922 49.8575 16.6591 49.6234 16.3754Z" fill="#0F3B66"/>
</svg>
